<?xml version="1.0" standalone="no"?>
<!DOCTYPE svg PUBLIC "-//W3C//DTD SVG 20010904//EN"
 "http://www.w3.org/TR/2001/REC-SVG-20010904/DTD/svg10.dtd">
<svg version="1.0" xmlns="http://www.w3.org/2000/svg"
 width="140.000000pt" height="80.000000pt" viewBox="0 0 140.000000 80.000000"
 preserveAspectRatio="xMidYMid meet">

<g transform="translate(0.000000,80.000000) scale(0.100000,-0.100000)"
fill="#000000" stroke="none">
<path d="M0 400 l0 -400 700 0 700 0 0 400 0 400 -700 0 -700 0 0 -400z m498
265 c53 -23 112 -83 111 -115 0 -14 -3 -19 -6 -12 -3 8 -32 12 -94 12 -64 0
-89 -3 -89 -12 0 -7 -12 14 -26 47 -14 33 -27 65 -30 72 -11 24 81 30 134 8z
m-134 -55 c25 -64 24 -65 -49 -62 -47 3 -65 0 -65 -9 0 -7 -3 -10 -6 -7 -15
16 68 118 96 118 4 0 15 -18 24 -40z m177 -183 c-13 -13 -26 -3 -16 12 3 6 11
8 17 5 6 -4 6 -10 -1 -17z m-132 -9 c5 -13 18 -46 30 -75 13 -34 17 -54 10
-59 -6 -3 -13 3 -16 15 -4 17 -13 21 -43 21 -30 0 -39 -4 -43 -21 -3 -12 -10
-18 -16 -15 -8 5 25 116 45 148 9 15 24 8 33 -14z m89 -55 c-2 -44 -7 -78 -13
-78 -6 0 -11 34 -13 78 -2 65 0 77 13 77 13 0 15 -12 13 -77z m196 32 c10 -25
21 -45 24 -45 4 0 15 20 25 45 11 25 23 45 28 45 5 0 9 -36 9 -81 0 -51 -4
-78 -10 -74 -5 3 -10 27 -11 53 l0 47 -16 -37 c-8 -21 -19 -38 -25 -38 -5 0
-17 17 -26 38 l-17 37 -3 -53 c-5 -79 -22 -52 -22 34 0 88 18 100 44 29z
m-154 -56 c0 -37 -4 -58 -10 -54 -18 11 -12 115 7 115 2 0 3 -27 3 -61z m334
48 c13 -10 17 -24 14 -57 -3 -38 -6 -44 -28 -45 -38 -3 -50 5 -50 31 0 19 7
26 29 30 20 4 28 11 24 20 -3 9 -13 12 -29 8 -25 -6 -34 10 -11 19 21 9 32 8
51 -6z m112 2 c4 -7 10 -6 19 1 27 23 45 0 45 -58 0 -64 -17 -61 -22 3 -4 54
-22 51 -28 -5 -3 -25 -9 -45 -15 -45 -5 0 -12 20 -15 45 -3 25 -9 45 -15 45
-5 0 -12 -20 -15 -45 -3 -25 -9 -45 -15 -45 -10 0 -20 78 -12 99 6 14 64 18
73 5z m159 -5 c11 -11 15 -30 13 -57 -3 -35 -6 -40 -30 -43 -37 -4 -62 21 -48
47 6 10 20 19 31 19 12 0 19 5 16 13 -2 6 -14 11 -25 9 -23 -3 -30 13 -9 21
22 10 35 7 52 -9z m-524 -39 c0 -5 -12 -11 -26 -13 -18 -2 -25 1 -25 13 0 12
7 15 25 13 14 -2 26 -7 26 -13z"/>
<path d="M376 378 c-9 -35 -8 -38 14 -38 11 0 20 3 20 8 0 19 -13 52 -20 52
-4 0 -10 -10 -14 -22z"/>
<path d="M830 321 c0 -18 18 -21 30 -6 10 13 9 15 -9 15 -11 0 -21 -4 -21 -9z"/>
<path d="M1102 319 c2 -6 8 -10 13 -10 5 0 11 4 13 10 2 6 -4 11 -13 11 -9 0
-15 -5 -13 -11z"/>
</g>
</svg>
